<?xml version="1.0" encoding="iso-8859-1"?>
<!-- Generator: Adobe Illustrator 19.0.0, SVG Export Plug-In . SVG Version: 6.00 Build 0)  -->
<svg version="1.1" id="Capa_1" xmlns="http://www.w3.org/2000/svg" xmlns:xlink="http://www.w3.org/1999/xlink" x="0px" y="0px"
	 viewBox="0 0 512.005 512.005" style="enable-background:new 0 0 512.005 512.005;" xml:space="preserve">
<g>
	<g>
		<path d="M509.805,236.432L366.485,93.114c-5.958-5.959-13.881-9.241-22.308-9.241s-16.349,3.282-22.308,9.241l-61.861,61.861
			l-29.797-29.797c-5.958-5.959-13.881-9.24-22.308-9.24s-16.35,3.281-22.308,9.24L2.197,308.577c-2.929,2.929-2.929,7.678,0,10.606
			c1.464,1.464,3.384,2.197,5.303,2.197s3.839-0.732,5.303-2.197L143.44,188.546l16.177,16.177c6.049,6.049,15.892,6.049,21.943,0
			l14.382-14.382c0.038-0.037,0.151-0.151,0.365-0.151c0.213,0,0.327,0.114,0.365,0.151l13.986,13.986l-3.423,3.423
			c-2.929,2.929-2.929,7.678,0,10.606c2.929,2.929,7.678,2.929,10.606,0l22.127-22.127l11.417,11.417
			c4.587,4.588,10.614,6.881,16.64,6.881s12.052-2.293,16.64-6.881l14.716-14.716c2.929-2.929,2.929-7.678,0-10.606
			c-2.929-2.929-7.678-2.929-10.606,0l-14.716,14.716c-3.327,3.328-8.74,3.327-12.067,0l-11.417-11.417l81.902-81.902
			c3.125-3.125,7.281-4.847,11.701-4.847s8.576,1.722,11.702,4.847l70.128,70.128l-3.4,3.4c-3.317,3.317-8.708,3.327-12.037,0.03
			c-0.015-0.015-0.03-0.03-0.044-0.044c-5.643-5.644-14.825-5.644-20.469,0l-14.544,14.544c-3.327,3.328-8.74,3.327-12.067,0
			l-31.829-31.829c-2.734-2.734-6.369-4.24-10.234-4.24c-3.866,0-7.501,1.506-10.235,4.24c-2.929,2.929-2.929,7.678,0,10.606
			c2.804,2.804,7.276,2.923,10.222,0.359l31.47,31.469c4.587,4.588,10.614,6.881,16.64,6.881c6.026,0,12.052-2.293,16.64-6.881
			l14.176-14.175c9.202,8.82,23.864,8.702,32.919-0.354l3.4-3.4l62.583,62.583c1.464,1.464,3.384,2.197,5.303,2.197
			s3.839-0.732,5.303-2.197C512.734,244.109,512.734,239.36,509.805,236.432z M221.264,193.72l-13.985-13.985
			c-2.931-2.931-6.827-4.545-10.972-4.545s-8.042,1.614-10.972,4.545l-14.381,14.381c-0.202,0.201-0.529,0.202-0.73,0
			l-16.177-16.177l42.155-42.154c6.452-6.452,16.951-6.452,23.403,0l29.797,29.797L221.264,193.72z"/>
	</g>
</g>
<g>
	<g>
		<path d="M507.455,355.083c-0.776-0.333-7.444-3.137-19.503-6.743v-18.944H504.5c2.46,0,4.763-1.206,6.165-3.228
			c1.401-2.022,1.722-4.602,0.858-6.905l-24.048-64.129c-1.098-2.927-3.896-4.867-7.022-4.867c-3.126,0-5.925,1.939-7.022,4.867
			L455.106,304l-18.589-12.393c-2.52-1.68-5.801-1.68-8.32,0l-12.388,8.259v-10.035c0-1.989-0.79-3.897-2.197-5.303l-48.097-48.097
			c-2.929-2.929-7.678-2.929-10.606,0l-45.528,45.528l-6.183-18.548c-1.021-3.063-3.887-5.128-7.115-5.128
			c-3.228,0-6.094,2.066-7.115,5.128l-14.261,42.783l-19.605-58.815c-1.021-3.063-3.887-5.128-7.115-5.128s-6.094,2.066-7.115,5.128
			l-24.048,72.145c-0.059,0.177-0.099,0.358-0.144,0.538l-11.486-11.486c-2.929-2.929-7.678-2.929-10.606,0l-24.048,24.048
			c-1.407,1.406-2.197,3.314-2.197,5.303v35.51c-5.609,1.859-11.294,3.726-17.064,5.589v-33.083c0-1.989-0.79-3.897-2.197-5.303
			l-26.762-26.761l73.731-73.731c2.929-2.929,2.929-7.678,0-10.606c-2.929-2.929-7.678-2.929-10.606,0l-73.731,73.731l-2.713-2.713
			c-1.407-1.407-3.314-2.197-5.303-2.197s-3.897,0.79-5.303,2.197l-23.1,23.1l-4.655-12.414c-1.098-2.927-3.896-4.867-7.022-4.867
			c-3.126,0-5.925,1.939-7.022,4.867l-24.048,64.129c-0.864,2.303-0.543,4.883,0.858,6.905c1.401,2.022,3.705,3.228,6.165,3.228
			h16.548v19.543c-15.358,3.225-31.211,6.004-47.595,8.143c-4.107,0.536-7.002,4.3-6.466,8.408c0.493,3.778,3.717,6.53,7.428,6.53
			c0.323,0,0.65-0.021,0.98-0.064c68.743-8.973,127.873-28.755,180.043-46.209c34.793-11.64,66.761-22.333,98.078-29.082v17.214
			c0,4.142,3.358,7.5,7.5,7.5c4.142,0,7.5-3.358,7.5-7.5v-20.138c16.185-2.809,32.288-4.427,48.613-4.427
			c93.274,0,148.809,23.21,149.352,23.442c3.809,1.632,8.216-0.132,9.848-3.939C513.026,361.123,511.262,356.715,507.455,355.083z
			 M50.387,370.509l13.226-35.269l13.226,35.269H50.387z M136.275,383.786c-20.663,6.434-42.351,12.632-65.162,17.943v-16.22h16.548
			c2.46,0,4.763-1.206,6.165-3.228c1.401-2.022,1.722-4.602,0.858-6.905l-13.608-36.288l22.618-22.618l32.581,32.581V383.786z
			 M216.435,357.477c-10.144,3.286-20.366,6.704-30.692,10.158c-0.798,0.267-1.603,0.536-2.404,0.804v-27.405l16.548-16.548
			l16.548,16.548V357.477z M247.984,273.468l13.643,40.928h-27.285L247.984,273.468z M240.484,349.954
			c-3.011,0.902-6.027,1.823-9.048,2.761v-14.787c0-1.989-0.79-3.897-2.197-5.303l-3.229-3.229h14.474V349.954z M265.948,342.313
			c0.106,0.147,0.225,0.28,0.34,0.417c-3.596,0.926-7.197,1.89-10.804,2.89v-16.225h11.487l-2.054,6.161
			C264.155,337.844,264.538,340.358,265.948,342.313z M282.439,330.428l13.642-40.928l13.643,40.928H282.439z M400.806,332.497
			c-14.819-1.285-31.046-2.07-48.613-2.07c-8.766,0.001-17.502,0.46-26.225,1.302l-6.356-19.067v-19.725l40.597-40.597
			l40.597,40.597V332.497z M448.903,339.002c-9.874-1.851-20.929-3.576-33.097-4.987v-16.122l16.549-11.032l16.548,11.032V339.002z
			 M480.452,279.127l13.226,35.269h-26.452L480.452,279.127z M472.952,344.238c-2.848-0.712-5.866-1.431-9.048-2.147v-12.696h9.048
			V344.238z"/>
	</g>
</g>
<g>
	<g>
		<path d="M111.71,354.476c-4.142,0-7.5,3.358-7.5,7.5v8.016c0,4.142,3.358,7.5,7.5,7.5c4.142,0,7.5-3.358,7.5-7.5v-8.016
			C119.21,357.834,115.852,354.476,111.71,354.476z"/>
	</g>
</g>
<g>
	<g>
		<path d="M344.177,290.348c-4.142,0-7.5,3.358-7.5,7.5v8.016c0,4.142,3.358,7.5,7.5,7.5c4.142,0,7.5-3.358,7.5-7.5v-8.016
			C351.677,293.705,348.319,290.348,344.177,290.348z"/>
	</g>
</g>
<g>
	<g>
		<path d="M376.242,290.348c-4.142,0-7.5,3.358-7.5,7.5v8.016c0,4.142,3.358,7.5,7.5,7.5c4.142,0,7.5-3.358,7.5-7.5v-8.016
			C383.742,293.705,380.384,290.348,376.242,290.348z"/>
	</g>
</g>
<g>
</g>
<g>
</g>
<g>
</g>
<g>
</g>
<g>
</g>
<g>
</g>
<g>
</g>
<g>
</g>
<g>
</g>
<g>
</g>
<g>
</g>
<g>
</g>
<g>
</g>
<g>
</g>
<g>
</g>
</svg>
